G04 Layer_Color=16711935*
%FSLAX24Y24*%
%MOIN*%
G70*
G01*
G75*
%ADD28R,0.0680X0.0680*%
G04:AMPARAMS|DCode=29|XSize=59.2mil|YSize=39.5mil|CornerRadius=7.9mil|HoleSize=0mil|Usage=FLASHONLY|Rotation=90.000|XOffset=0mil|YOffset=0mil|HoleType=Round|Shape=RoundedRectangle|*
%AMROUNDEDRECTD29*
21,1,0.0592,0.0236,0,0,90.0*
21,1,0.0433,0.0395,0,0,90.0*
1,1,0.0159,0.0118,0.0217*
1,1,0.0159,0.0118,-0.0217*
1,1,0.0159,-0.0118,-0.0217*
1,1,0.0159,-0.0118,0.0217*
%
%ADD29ROUNDEDRECTD29*%
G04:AMPARAMS|DCode=30|XSize=59.2mil|YSize=39.5mil|CornerRadius=7.9mil|HoleSize=0mil|Usage=FLASHONLY|Rotation=0.000|XOffset=0mil|YOffset=0mil|HoleType=Round|Shape=RoundedRectangle|*
%AMROUNDEDRECTD30*
21,1,0.0592,0.0236,0,0,0.0*
21,1,0.0433,0.0395,0,0,0.0*
1,1,0.0159,0.0217,-0.0118*
1,1,0.0159,-0.0217,-0.0118*
1,1,0.0159,-0.0217,0.0118*
1,1,0.0159,0.0217,0.0118*
%
%ADD30ROUNDEDRECTD30*%
%ADD33C,0.0680*%
%ADD34C,0.0671*%
%ADD35R,0.0671X0.0671*%
%ADD36C,0.0580*%
%ADD37C,0.1261*%
%ADD38C,0.0919*%
%ADD39C,0.0789*%
%ADD40C,0.0867*%
D28*
X51650Y22250D02*
D03*
D29*
X52165Y13780D02*
D03*
X52953D02*
D03*
D30*
X56988Y18504D02*
D03*
Y17717D02*
D03*
X55709Y23425D02*
D03*
Y24213D02*
D03*
X55020Y23425D02*
D03*
Y24213D02*
D03*
D33*
X48445Y18406D02*
D03*
X50177D02*
D03*
Y16043D02*
D03*
X48445D02*
D03*
Y21555D02*
D03*
X50177D02*
D03*
Y19193D02*
D03*
X48445D02*
D03*
X51650Y17250D02*
D03*
Y18250D02*
D03*
Y19250D02*
D03*
Y20250D02*
D03*
Y21250D02*
D03*
X55650Y17250D02*
D03*
Y18250D02*
D03*
Y19250D02*
D03*
Y20250D02*
D03*
Y21250D02*
D03*
Y22250D02*
D03*
X50550Y15250D02*
D03*
X49550D02*
D03*
X48550D02*
D03*
X47550Y26250D02*
D03*
Y25250D02*
D03*
Y16250D02*
D03*
Y24250D02*
D03*
Y23250D02*
D03*
Y22250D02*
D03*
Y21250D02*
D03*
Y20250D02*
D03*
Y19250D02*
D03*
Y18250D02*
D03*
Y17250D02*
D03*
Y15250D02*
D03*
X53550Y24250D02*
D03*
Y15250D02*
D03*
Y16250D02*
D03*
Y17250D02*
D03*
Y18250D02*
D03*
Y19250D02*
D03*
Y20250D02*
D03*
Y21250D02*
D03*
Y22250D02*
D03*
Y23250D02*
D03*
Y25250D02*
D03*
Y26250D02*
D03*
D34*
X54850Y26400D02*
D03*
D35*
Y27400D02*
D03*
D36*
X49148Y16634D02*
D03*
X51181Y16240D02*
D03*
D37*
X56299Y27165D02*
D03*
X46063D02*
D03*
X56299Y12992D02*
D03*
D38*
X49425Y13022D02*
D03*
X47028D02*
D03*
D39*
X51050Y28214D02*
D03*
D40*
Y29986D02*
D03*
M02*
