G04 Layer_Color=255*
%FSLAX24Y24*%
%MOIN*%
G70*
G01*
G75*
%ADD10R,0.0600X0.0600*%
G04:AMPARAMS|DCode=11|XSize=51.2mil|YSize=31.5mil|CornerRadius=3.9mil|HoleSize=0mil|Usage=FLASHONLY|Rotation=90.000|XOffset=0mil|YOffset=0mil|HoleType=Round|Shape=RoundedRectangle|*
%AMROUNDEDRECTD11*
21,1,0.0512,0.0236,0,0,90.0*
21,1,0.0433,0.0315,0,0,90.0*
1,1,0.0079,0.0118,0.0217*
1,1,0.0079,0.0118,-0.0217*
1,1,0.0079,-0.0118,-0.0217*
1,1,0.0079,-0.0118,0.0217*
%
%ADD11ROUNDEDRECTD11*%
G04:AMPARAMS|DCode=12|XSize=51.2mil|YSize=31.5mil|CornerRadius=3.9mil|HoleSize=0mil|Usage=FLASHONLY|Rotation=0.000|XOffset=0mil|YOffset=0mil|HoleType=Round|Shape=RoundedRectangle|*
%AMROUNDEDRECTD12*
21,1,0.0512,0.0236,0,0,0.0*
21,1,0.0433,0.0315,0,0,0.0*
1,1,0.0079,0.0217,-0.0118*
1,1,0.0079,-0.0217,-0.0118*
1,1,0.0079,-0.0217,0.0118*
1,1,0.0079,0.0217,0.0118*
%
%ADD12ROUNDEDRECTD12*%
%ADD17C,0.0600*%
%ADD18C,0.0591*%
%ADD19R,0.0591X0.0591*%
D10*
X51650Y22250D02*
D03*
D11*
X52165Y13780D02*
D03*
X52953D02*
D03*
D12*
X56988Y18504D02*
D03*
Y17717D02*
D03*
X55709Y23425D02*
D03*
Y24213D02*
D03*
X55020Y23425D02*
D03*
Y24213D02*
D03*
D17*
X48445Y18406D02*
D03*
X50177D02*
D03*
Y16043D02*
D03*
X48445D02*
D03*
Y21555D02*
D03*
X50177D02*
D03*
Y19193D02*
D03*
X48445D02*
D03*
X51650Y17250D02*
D03*
Y18250D02*
D03*
Y19250D02*
D03*
Y20250D02*
D03*
Y21250D02*
D03*
X55650Y17250D02*
D03*
Y18250D02*
D03*
Y19250D02*
D03*
Y20250D02*
D03*
Y21250D02*
D03*
Y22250D02*
D03*
X50550Y15250D02*
D03*
X49550D02*
D03*
X48550D02*
D03*
X47550Y26250D02*
D03*
Y25250D02*
D03*
Y16250D02*
D03*
Y24250D02*
D03*
Y23250D02*
D03*
Y22250D02*
D03*
Y21250D02*
D03*
Y20250D02*
D03*
Y19250D02*
D03*
Y18250D02*
D03*
Y17250D02*
D03*
Y15250D02*
D03*
X53550Y24250D02*
D03*
Y15250D02*
D03*
Y16250D02*
D03*
Y17250D02*
D03*
Y18250D02*
D03*
Y19250D02*
D03*
Y20250D02*
D03*
Y21250D02*
D03*
Y22250D02*
D03*
Y23250D02*
D03*
Y25250D02*
D03*
Y26250D02*
D03*
D18*
X54850Y26400D02*
D03*
D19*
Y27400D02*
D03*
M02*
