G04 Layer_Color=65535*
%FSLAX24Y24*%
%MOIN*%
G70*
G01*
G75*
%ADD15C,0.0100*%
%ADD25C,0.0079*%
%ADD26C,0.0122*%
%ADD27C,0.0050*%
D15*
X48511Y16424D02*
Y18024D01*
X50111Y16424D02*
Y18024D01*
X48511Y19574D02*
Y21174D01*
X50111Y19574D02*
Y21174D01*
X50894Y19750D02*
Y25656D01*
X56406D01*
Y13844D02*
Y25656D01*
X50894Y13844D02*
X56406D01*
X50894D02*
Y19750D01*
X46008Y11821D02*
Y14222D01*
X50646Y11821D02*
Y14222D01*
X45008Y12022D02*
Y14022D01*
Y12022D02*
X45953D01*
X45008Y14022D02*
X45992D01*
X50550Y31100D02*
X51050Y31600D01*
X50550Y31100D02*
X51550D01*
X51050Y31600D02*
X51550Y31100D01*
X49278Y31954D02*
X51050D01*
X49278Y26246D02*
Y31954D01*
Y26246D02*
X52822D01*
Y31954D01*
X51050D02*
X52822D01*
X46118Y18745D02*
Y18246D01*
X46217Y18146D01*
X46417D01*
X46517Y18246D01*
Y18745D01*
X46717Y18146D02*
X46917D01*
X46817D01*
Y18745D01*
X46717Y18645D01*
X48923Y17527D02*
X48824Y17627D01*
X48624D01*
X48524Y17527D01*
Y17427D01*
X48624Y17327D01*
X48824D01*
X48923Y17227D01*
Y17128D01*
X48824Y17028D01*
X48624D01*
X48524Y17128D01*
X49123Y17627D02*
Y17028D01*
X49323Y17227D01*
X49523Y17028D01*
Y17627D01*
X50123Y17028D02*
X49723D01*
X50123Y17427D01*
Y17527D01*
X50023Y17627D01*
X49823D01*
X49723Y17527D01*
X54429Y13592D02*
Y12992D01*
X54829D01*
X55029D02*
X55229D01*
X55129D01*
Y13592D01*
X55029Y13492D01*
X50650Y26850D02*
Y27450D01*
X50950D01*
X51050Y27350D01*
Y27150D01*
X50950Y27050D01*
X50650D01*
X51250Y26850D02*
X51450D01*
X51350D01*
Y27450D01*
X51250Y27350D01*
X49927Y12222D02*
X50527D01*
Y12622D01*
X49927Y13221D02*
Y12821D01*
X50527D01*
Y13221D01*
X50227Y12821D02*
Y13021D01*
X49927Y13421D02*
X50527D01*
Y13721D01*
X50427Y13821D01*
X50027D01*
X49927Y13721D01*
Y13421D01*
X51476Y12500D02*
Y13100D01*
X51776D01*
X51876Y13000D01*
Y12800D01*
X51776Y12700D01*
X51476D01*
X51676D02*
X51876Y12500D01*
X52076D02*
X52276D01*
X52176D01*
Y13100D01*
X52076Y13000D01*
X48819Y22244D02*
Y22844D01*
X49119D01*
X49219Y22744D01*
Y22544D01*
X49119Y22444D01*
X48819D01*
X49019D02*
X49219Y22244D01*
X49819D02*
X49419D01*
X49819Y22644D01*
Y22744D01*
X49719Y22844D01*
X49519D01*
X49419Y22744D01*
X46060Y21363D02*
Y21963D01*
X46360D01*
X46460Y21863D01*
Y21663D01*
X46360Y21563D01*
X46060D01*
X46260D02*
X46460Y21363D01*
X46660Y21863D02*
X46760Y21963D01*
X46960D01*
X47060Y21863D01*
Y21763D01*
X46960Y21663D01*
X46860D01*
X46960D01*
X47060Y21563D01*
Y21463D01*
X46960Y21363D01*
X46760D01*
X46660Y21463D01*
X49022Y20480D02*
X48922Y20580D01*
X48722D01*
X48622Y20480D01*
Y20380D01*
X48722Y20280D01*
X48922D01*
X49022Y20180D01*
Y20080D01*
X48922Y19980D01*
X48722D01*
X48622Y20080D01*
X49222Y20580D02*
Y19980D01*
X49422Y20180D01*
X49622Y19980D01*
Y20580D01*
X49822Y19980D02*
X50022D01*
X49922D01*
Y20580D01*
X49822Y20480D01*
D25*
X55350Y25900D02*
Y27900D01*
X54350D02*
X55350D01*
X54350Y25900D02*
Y27900D01*
Y25900D02*
X55350D01*
D26*
X46008Y14222D02*
X50646D01*
X46008Y11821D02*
X50646D01*
D27*
X52751Y12280D02*
X52851D01*
X52801D01*
Y11980D01*
X52751D01*
X52851D01*
X53000D02*
Y12280D01*
X53150D01*
X53200Y12230D01*
Y12130D01*
X53150Y12080D01*
X53000D01*
X53100D02*
X53200Y11980D01*
X53600D02*
Y12280D01*
X53750D01*
X53800Y12230D01*
Y12130D01*
X53750Y12080D01*
X53600D01*
X53700D02*
X53800Y11980D01*
X54050D02*
X53950D01*
X53900Y12030D01*
Y12130D01*
X53950Y12180D01*
X54050D01*
X54100Y12130D01*
Y12080D01*
X53900D01*
X54200Y11980D02*
Y12180D01*
X54250D01*
X54300Y12130D01*
Y11980D01*
Y12130D01*
X54350Y12180D01*
X54400Y12130D01*
Y11980D01*
X54550D02*
X54650D01*
X54700Y12030D01*
Y12130D01*
X54650Y12180D01*
X54550D01*
X54500Y12130D01*
Y12030D01*
X54550Y11980D01*
X54850Y12230D02*
Y12180D01*
X54800D01*
X54900D01*
X54850D01*
Y12030D01*
X54900Y11980D01*
X55200D02*
X55100D01*
X55050Y12030D01*
Y12130D01*
X55100Y12180D01*
X55200D01*
X55250Y12130D01*
Y12080D01*
X55050D01*
X55850Y11980D02*
X55650D01*
X55850Y12180D01*
Y12230D01*
X55800Y12280D01*
X55700D01*
X55650Y12230D01*
X55950Y11980D02*
Y12030D01*
X56000D01*
Y11980D01*
X55950D01*
X56199D02*
X56299D01*
X56249D01*
Y12280D01*
X56199Y12230D01*
X53400Y11800D02*
Y11500D01*
X53550D01*
X53600Y11550D01*
Y11600D01*
X53550Y11650D01*
X53400D01*
X53550D01*
X53600Y11700D01*
Y11750D01*
X53550Y11800D01*
X53400D01*
X53700Y11700D02*
Y11550D01*
X53750Y11500D01*
X53900D01*
Y11450D01*
X53850Y11400D01*
X53800D01*
X53900Y11500D02*
Y11700D01*
X54300Y11800D02*
Y11500D01*
Y11600D01*
X54500Y11800D01*
X54350Y11650D01*
X54500Y11500D01*
X54600D02*
Y11550D01*
X54650D01*
Y11500D01*
X54600D01*
X54850Y11800D02*
Y11500D01*
Y11600D01*
X55050Y11800D01*
X54900Y11650D01*
X55050Y11500D01*
X55200Y11700D02*
X55300D01*
X55350Y11650D01*
Y11500D01*
X55200D01*
X55150Y11550D01*
X55200Y11600D01*
X55350D01*
X55450Y11500D02*
Y11700D01*
X55500D01*
X55550Y11650D01*
Y11500D01*
Y11650D01*
X55600Y11700D01*
X55650Y11650D01*
Y11500D01*
X48720Y25689D02*
Y25989D01*
X48870D01*
X48920Y25939D01*
Y25839D01*
X48870Y25789D01*
X48720D01*
X48820D02*
X48920Y25689D01*
X49020D02*
Y25889D01*
X49120Y25989D01*
X49220Y25889D01*
Y25689D01*
Y25839D01*
X49020D01*
X49320Y25989D02*
Y25689D01*
X49420Y25789D01*
X49520Y25689D01*
Y25989D01*
X48819Y23922D02*
Y23722D01*
X48919Y23622D01*
X49019Y23722D01*
Y23922D01*
X49319Y23872D02*
X49269Y23922D01*
X49169D01*
X49119Y23872D01*
Y23672D01*
X49169Y23622D01*
X49269D01*
X49319Y23672D01*
X49619Y23872D02*
X49569Y23922D01*
X49469D01*
X49419Y23872D01*
Y23672D01*
X49469Y23622D01*
X49569D01*
X49619Y23672D01*
X55700Y27850D02*
Y27650D01*
Y27750D01*
X55400D01*
X55450Y26200D02*
X55750D01*
Y26050D01*
X55700Y26000D01*
X55600D01*
X55550Y26050D01*
Y26200D01*
Y26100D02*
X55450Y26000D01*
M02*
