M48
;Layer_Color=9474304
;FILE_FORMAT=2:4
INCH,TZ
;TYPE=PLATED
T1F00S00C0.0280
T2F00S00C0.0300
T3F00S00C0.0315
T4F00S00C0.0354
T5F00S00C0.0598
T6F00S00C0.0709
T7F00S00C0.0787
T8F00S00C0.1181
%
T01
X49148Y16634
X51181Y16240
T02
X47550Y15250
X48550
X49550
X50550
X53550
Y16250
Y17250
Y18250
Y19250
Y20250
Y21250
Y22250
Y23250
Y24250
Y25250
Y26250
X51650Y22250
Y21250
Y20250
Y19250
Y18250
Y17250
X55650
Y18250
Y19250
Y20250
Y21250
Y22250
X47550
Y23250
Y24250
Y25250
Y26250
Y21250
Y20250
Y19250
Y18250
Y17250
Y16250
T03
X48445Y16043
X50177
Y18406
Y19193
X48445
Y18406
Y21555
X50177
T04
X54850Y26400
Y27400
T05
X47028Y13022
X49425
T06
X51050Y28214
T07
X51050Y29986
T08
X56299Y12992
Y27165
X46063
M30
